<svg width="593" height="450" viewBox="0 0 593 450" fill="none" xmlns="http://www.w3.org/2000/svg">
<path d="M74.9758 267.569C89.3526 232.921 103.554 198.613 117.813 164.329C136.609 119.133 155.446 73.9541 174.278 28.7735C177.609 20.7838 181.139 12.8742 184.304 4.82048C185.582 1.56728 187.353 0.195392 190.943 0.222156C209.608 0.361224 228.275 0.357258 246.94 0.208271C250.596 0.179096 252.217 1.80877 253.548 4.93816C270.42 44.6252 287.38 84.275 304.346 123.922C329.043 181.632 353.758 239.334 378.474 297.036C393.749 332.695 409.039 368.348 424.322 404.003C430.354 418.079 436.388 432.153 442.405 446.235C442.719 446.971 442.88 447.772 443.094 448.483C441.61 450.441 439.635 449.869 437.915 449.873C416.582 449.915 395.249 449.798 373.918 449.98C369.79 450.015 368.175 448.174 366.718 444.686C349.717 403.982 332.458 363.386 315.583 322.631C313.09 316.61 309.794 314.748 303.332 314.779C246.501 315.053 189.669 314.996 132.837 314.833C128.118 314.819 125.829 316.197 124.039 320.672C110.378 354.831 96.4175 388.87 82.5692 422.953C78.9103 431.959 81.612 440.878 89.6347 446.496C90.445 447.064 91.4012 447.475 91.8332 449.246C61.3369 449.246 31.0025 449.246 0 449.246C25.0814 388.466 49.9537 328.193 74.9758 267.569ZM134.198 131.061C120.497 163.95 106.736 196.815 93.1071 229.735C66.8695 293.113 40.7128 356.524 14.5067 419.914C10.7844 428.918 6.97295 437.885 3.11264 447.084C31.0523 447.084 58.3446 447.084 86.3757 447.084C79.5996 440.083 75.9053 432.845 79.5264 423.91C93.9072 388.425 108.453 353.008 122.831 317.522C124.271 313.969 126.146 312.481 130.212 312.489C188.864 312.608 247.516 312.615 306.167 312.403C311.696 312.383 314.539 314.219 316.638 319.26C333.019 358.599 349.648 397.834 366.139 437.127C366.179 437.222 366.219 437.316 366.258 437.409C370.525 447.578 370.531 447.593 381.621 447.582C397.116 447.568 412.612 447.608 428.107 447.6C444.615 448.483 439.587 447.582 435.661 437.178C434.192 433.287 432.438 429.504 430.797 425.679C418.06 396 405.337 366.316 392.577 336.648C378.622 304.201 364.578 271.792 350.678 239.321C340.984 216.676 331.506 193.938 321.866 171.27C298.738 116.882 275.533 62.5259 252.497 8.09887C250.822 4.14299 248.704 2.52694 244.333 2.57399C227.841 2.75161 211.325 3.00167 194.859 2.28408C189.203 2.03762 187.016 3.65188 185.007 8.54555C168.313 49.2089 151.365 89.7677 134.198 131.061Z" fill="#1D5491"/>
<path d="M442.612 328.013C430.933 306.845 419.011 286.219 408.062 265.089C398.184 246.028 390.617 225.867 381.984 206.212C381.601 205.34 381.587 204.307 381.413 203.409C383.287 201.663 385.377 202.332 387.274 202.278C401.244 201.881 415.228 202.881 429.194 201.303C451.624 198.77 470.901 190.774 482.736 170.318C495.837 147.672 495.389 109.76 477.969 88.5778C466.759 74.9472 452.314 67.9061 435.345 64.9034C427.724 63.5548 420.085 63.9259 412.447 63.9038C388.12 63.8332 363.791 63.7348 339.467 63.9791C334.019 64.0339 331.367 62.7254 329.565 57.0135C324.564 41.1579 318.548 25.6232 312.994 9.94017C312.012 7.16496 311.323 4.28566 310.585 1.75129C312.53 -0.3243 314.476 0.30247 316.209 0.301066C356.032 0.268962 395.875 -0.490162 435.672 0.532512C468.251 1.36973 498.222 10.9142 522.711 33.8725C540.899 50.9237 551.067 72.3119 555.959 96.3178C562.636 129.087 559.788 161.059 544.492 191.039C529.731 219.97 505.962 239.446 476.199 251.872C474.707 252.495 472.94 252.622 471.642 254.451C477.664 264.633 483.709 274.938 489.834 285.196C518.778 333.67 547.747 382.129 576.698 430.599C581.117 437.997 584.857 443.527 592.615 447.492C591.926 449.722 592.057 449.878 590.916 449.88C565.089 449.925 539.262 449.863 513.436 449.976C510.101 449.991 508.438 448.647 506.904 445.825C485.602 406.624 464.184 367.487 442.612 328.013ZM512.359 447.492C537.272 447.492 562.185 447.492 588.187 447.492C576.065 437.688 570.307 424.503 563.025 412.49C541.274 376.606 519.967 340.453 498.504 304.395C489.395 289.091 480.224 273.821 471.297 258.41C467.927 252.591 468.156 252.308 474.223 249.845C486.963 244.672 498.683 237.858 509.478 229.3C533.007 210.645 547.957 186.718 553.744 157.299C557.595 137.727 558.019 118.103 554.057 98.3304C549.1 73.596 538.684 51.9491 520.098 34.6986C496.868 13.1389 468.471 3.79533 437.521 3.05332C397.887 2.1031 358.216 2.69398 318.56 2.65303C317.134 2.65156 315.528 2.26487 314.062 4.01728C314.317 5.32124 314.437 6.98896 314.974 8.50972C320.512 24.2007 326.206 39.8371 331.639 55.5642C332.944 59.3437 335.511 61.6168 339.467 61.5857C363.459 61.3968 387.615 61.6525 411.115 61.5857C423.295 61.551 435.152 61.1235 446.901 64.8582C463.523 70.142 476.595 79.9818 485.151 95.1026C495.59 113.552 496.531 133.326 491.767 153.669C487.145 173.405 476.007 187.921 457.59 196.523C444.858 202.47 431.14 204.171 417.288 204.683C408.636 205.003 399.962 204.682 391.299 204.763C386.589 204.808 385.135 206.872 386.87 210.942C392.747 224.72 398.396 238.604 404.66 252.205C418.189 281.581 435.357 309.023 450.597 337.493C468.669 371.255 487.117 404.816 505.515 438.403C507.227 441.526 508.063 445.359 512.359 447.492Z" fill="#1D5491"/>
<path fill-rule="evenodd" clip-rule="evenodd" d="M588.187 447.492H512.359C509.011 445.83 507.764 443.136 506.567 440.549C506.228 439.817 505.893 439.092 505.515 438.403C503.423 434.582 501.329 430.762 499.236 426.942C482.925 397.179 466.614 367.414 450.597 337.493C445.316 327.628 439.804 317.886 434.292 308.145C423.896 289.773 413.501 271.402 404.66 252.205C400.091 242.286 395.85 232.215 391.609 222.145C390.035 218.408 388.461 214.671 386.87 210.942C385.135 206.872 386.589 204.808 391.299 204.763C394.641 204.732 397.984 204.761 401.327 204.789C406.651 204.834 411.973 204.88 417.288 204.683C431.14 204.171 444.858 202.47 457.59 196.523C476.007 187.921 487.145 173.405 491.767 153.669C496.531 133.326 495.59 113.552 485.151 95.1026C476.595 79.9818 463.523 70.142 446.901 64.8582C436.17 61.447 425.349 61.5082 414.274 61.5708C413.223 61.5767 412.17 61.5827 411.115 61.5857C401.262 61.6137 391.294 61.585 381.27 61.5562C367.388 61.5162 353.399 61.476 339.467 61.5857C335.511 61.6168 332.944 59.3437 331.639 55.5642C328.239 45.7229 324.737 35.9171 321.235 26.1112C319.141 20.2466 317.047 14.382 314.974 8.50972C314.6 7.44939 314.428 6.31763 314.272 5.28752C314.204 4.84021 314.139 4.41208 314.062 4.01728C315.308 2.52855 316.654 2.58362 317.905 2.6348C318.127 2.64386 318.346 2.65281 318.56 2.65303C330.091 2.66493 341.623 2.62342 353.155 2.58191C381.283 2.48065 409.412 2.3794 437.521 3.05332C468.471 3.79533 496.868 13.1389 520.098 34.6986C538.684 51.9491 549.1 73.596 554.057 98.3304C558.019 118.103 557.595 137.727 553.744 157.299C547.957 186.718 533.007 210.645 509.478 229.3C498.683 237.858 486.963 244.672 474.223 249.845C468.156 252.308 467.927 252.591 471.297 258.41C478.438 270.738 485.735 282.975 493.032 295.212C494.857 298.273 496.682 301.333 498.504 304.395C504.083 313.768 509.651 323.147 515.219 332.525C531.073 359.229 546.927 385.933 563.025 412.49C564.547 415.001 566.002 417.563 567.463 420.135C572.992 429.867 578.599 439.737 588.187 447.492Z" fill="#1D5491"/>
<path d="M210.542 100.967C212.355 96.4422 213.989 92.2592 215.699 88.1073C216.434 86.3219 216.772 83.9016 219.333 83.9447C221.698 83.9844 222.478 86.0691 223.254 87.9472C229.163 102.242 235.028 116.556 241.002 130.824C255.128 164.564 269.381 198.251 283.402 232.035C286.302 239.022 289.807 245.827 291.849 253.878C283.402 253.878 274.984 253.85 267.115 253.878C231.543 254.002 201.187 253.531 165.615 253.586C161.122 253.586 157.9 253.557 157.334 253.586C147.615 254.086 149.63 252.614 152.217 246.175C163.062 219.181 174.089 192.26 184.946 165.27C193.507 143.986 201.917 122.64 210.542 100.967ZM270.139 206.906C269.937 206.273 269.781 205.62 269.525 205.008C254.841 169.873 240.155 134.739 225.448 99.6133C223.637 95.2873 221.707 91.011 219.377 85.6689C196.894 141.702 174.892 196.534 152.721 251.789C198.155 251.789 243.207 251.789 289.117 251.789C282.718 236.634 276.588 222.117 270.139 206.906Z" fill="#1D5491"/>
<path fill-rule="evenodd" clip-rule="evenodd" d="M121.394 161.763C125.664 151.53 129.934 141.297 134.198 131.061C138.045 121.808 141.881 112.592 145.705 103.403C158.948 71.5856 172.054 40.097 185.007 8.54557C187.016 3.6519 189.203 2.03764 194.859 2.2841C210.181 2.95184 225.546 2.7817 240.896 2.61173C242.042 2.59904 243.188 2.58635 244.333 2.57401C248.704 2.52695 250.822 4.14301 252.497 8.09889C268.36 45.5773 284.302 83.022 300.245 120.467C307.454 137.4 314.664 154.333 321.866 171.27C325.995 180.979 330.095 190.702 334.194 200.424C339.665 213.4 345.136 226.375 350.678 239.321C359.264 259.378 367.905 279.412 376.546 299.445C381.894 311.844 387.242 324.243 392.577 336.648C402.033 358.636 411.47 380.632 420.907 402.628C424.203 410.312 427.5 417.996 430.797 425.679C431.261 426.76 431.733 427.837 432.206 428.915C433.407 431.65 434.607 434.386 435.661 437.178C436.531 439.484 437.456 441.324 438.188 442.78C440.758 447.894 440.956 448.287 428.107 447.6C420.869 447.604 413.632 447.597 406.395 447.59C398.137 447.582 389.879 447.575 381.621 447.582C370.531 447.593 370.525 447.578 366.258 437.409L366.139 437.127C360.271 423.144 354.384 409.169 348.498 395.193C337.844 369.896 327.19 344.6 316.638 319.26C314.539 314.219 311.696 312.383 306.167 312.403C247.516 312.615 188.864 312.608 130.212 312.489C126.146 312.481 124.271 313.969 122.831 317.522C115.579 335.42 108.285 353.301 100.99 371.182C93.822 388.752 86.6539 406.323 79.5264 423.91C75.9053 432.845 79.5996 440.083 86.3757 447.084H3.11264C4.34026 444.159 5.56294 441.257 6.77938 438.37C9.3881 432.178 11.9682 426.055 14.5067 419.914C24.447 395.87 34.3801 371.822 44.3132 347.775C60.5674 308.424 76.8217 269.073 93.1071 229.735C102.494 207.06 111.944 184.412 121.394 161.763ZM212.273 96.6229C213.433 93.7072 214.549 90.9002 215.699 88.1073C215.822 87.8084 215.934 87.4918 216.047 87.1719C216.609 85.5806 217.2 83.9087 219.333 83.9446C221.621 83.9831 222.426 85.9367 223.179 87.7648C223.204 87.8258 223.229 87.8866 223.254 87.9472C224.943 92.0317 226.627 96.1177 228.312 100.204C232.523 110.418 236.735 120.633 241.002 130.824C246.005 142.775 251.025 154.719 256.044 166.663C265.196 188.44 274.348 210.217 283.402 232.035C284.139 233.81 284.915 235.574 285.696 237.349C287.989 242.561 290.326 247.873 291.849 253.878C289.011 253.878 286.175 253.875 283.363 253.872C277.807 253.865 272.34 253.859 267.115 253.878C248.282 253.944 230.91 253.842 213.453 253.741C197.937 253.651 182.354 253.56 165.615 253.586C163.85 253.586 162.281 253.581 160.993 253.577C159.001 253.572 157.678 253.568 157.334 253.586C148.846 254.022 149.308 252.955 151.284 248.387C151.571 247.725 151.889 246.99 152.217 246.175C157.805 232.267 163.441 218.378 169.077 204.489C174.38 191.422 179.683 178.354 184.946 165.27C190.706 150.95 196.397 136.603 202.131 122.146C204.92 115.115 207.719 108.059 210.542 100.967C211.135 99.486 211.709 98.0416 212.273 96.6229Z" fill="#1D5491"/>
</svg>
